<?xml version="1.0" encoding="UTF-8" standalone="no"?><!DOCTYPE svg PUBLIC "-//W3C//DTD SVG 1.1//EN" "http://www.w3.org/Graphics/SVG/1.1/DTD/svg11.dtd"><svg width="100%" height="100%" viewBox="0 0 64 64" version="1.1" xmlns="http://www.w3.org/2000/svg" xmlns:xlink="http://www.w3.org/1999/xlink" xml:space="preserve" xmlns:serif="http://www.serif.com/" style="fill-rule:evenodd;clip-rule:evenodd;stroke-linejoin:round;stroke-miterlimit:2;"><path d="M33.71,45.571l9.375,16.538l0,1.243l-9.375,-0l0,-17.781Zm-1.938,-3.417l0,21.198l-8.213,-0l-15.025,-39.465c0.401,1.923 0.601,3.432 0.601,4.527l0,34.938l-9.135,-0l-0,-62.704l8.214,0l15.024,38.664c-0.4,-1.923 -0.601,-3.432 -0.601,-4.527l0,-8.745l9.135,16.114Zm1.938,-1.542l0,-39.964l24.561,0c3.819,0 5.729,1.923 5.729,5.77l-0,28.367c-0,3.899 -1.91,5.849 -5.729,5.849l-15.186,0l0,16.516l-9.375,-16.538Zm-1.938,-3.417l-9.135,-16.114l0,-20.433l9.135,0l0,36.547Zm22.772,-4.614l0,-23.879l-11.459,-0l0,23.879l11.459,-0Z" style="fill:url(#_Linear1);fill-rule:nonzero;"/><defs><linearGradient id="_Linear1" x1="0" y1="0" x2="1" y2="0" gradientUnits="userSpaceOnUse" gradientTransform="matrix(3.29511e-15,-53.8133,53.8133,3.29511e-15,27.2049,54.4615)"><stop offset="0" style="stop-color:#000;stop-opacity:1"/><stop offset="1" style="stop-color:#00386f;stop-opacity:1"/></linearGradient></defs></svg>